<svg xmlns="http://www.w3.org/2000/svg" xml:space="preserve" width="1500" height="1500" fill="#fff" stroke="#fff" data-id="lg_nETBzQCZmRwwH3TD3Q" data-version="1" viewBox="0 0 1500 1500"><path fill="#000" stroke="transparent" d="M0 0h1500v1500H0z"/><g data-padding="20"><g transform="translate(-585.74 -583.75)scale(1.7327)"><rect width="504.158" height="559.35" x="123.888" y="95.133" fill="none" rx="0" ry="0" transform="matrix(.99 0 0 .99 398.69 398.69)"/><path fill="#dedede" d="M988.975 755.157q0 152.895-148.49 179.853 26.958 12.741 62.24 24.502-32.837 27.928-86.248 74.488-54.885-42.144-93.604-95.565-87.714-10.286-129.126-57.826-41.411-47.53-41.411-125.452 0-87.23 52.687-136.234 52.678-49.005 165.39-49.005 113.196 0 165.884 49.005 52.678 49.005 52.678 136.234M770.413 840.92q54.39 0 78.408-20.83 24.007-20.829 24.007-64.933 0-43.125-24.007-64.192-24.018-21.077-78.408-21.077-53.906 0-77.923 21.077-24.008 21.067-24.008 64.192 0 43.62 24.008 64.686 24.017 21.077 77.923 21.077"/></g><path fill="transparent" stroke="transparent" stroke-width="1.805" d="M299.639 250h900.722v1000H299.639z"/></g></svg>